<svg xmlns="http://www.w3.org/2000/svg" viewBox="0 0 1200 675" role="img" aria-labelledby="t"><title id="t">Luang Prabang illustration</title><rect width="1200" height="675" fill="#fde0c4"/><circle cx="365" cy="148" r="58" fill="#ffd27a" opacity=".95"/><path d="M0 675 L0 390 L0 303 L200 264 L400 279 L600 339 L800 273 L1000 317 L1200 264 L1200 675 Z" fill="#f0a986"/><rect x="0" y="470" width="1200" height="205" fill="#fff1df"/><rect x="540" y="418" width="220" height="52" fill="#6b3f3a"/><path d="M500 418 q150 -36 300 0 Z" fill="#b84a3a"/><rect x="565" y="348" width="170" height="52" fill="#6b3f3a"/><path d="M525 348 q125 -36 250 0 Z" fill="#b84a3a"/><rect x="590" y="278" width="120" height="52" fill="#6b3f3a"/><path d="M550 278 q100 -36 200 0 Z" fill="#b84a3a"/><rect x="615" y="208" width="70" height="52" fill="#6b3f3a"/><path d="M575 208 q75 -36 150 0 Z" fill="#b84a3a"/><rect x="646" y="140" width="8" height="60" fill="#b84a3a"/><rect x="14" y="14" width="1172" height="647" rx="26" fill="none" stroke="#fff" stroke-width="10" stroke-dasharray="2 18" stroke-linecap="round"/></svg>
