<svg xmlns="http://www.w3.org/2000/svg" viewBox="0 0 1200 675" role="img" aria-labelledby="t"><title id="t">Panama City illustration</title><rect width="1200" height="675" fill="#fde3cc"/><circle cx="674" cy="121" r="58" fill="#ffd27a" opacity=".95"/><rect x="60" y="270" width="63" height="200" rx="4" fill="#f2b78f"/><rect x="72" y="288" width="9" height="13" fill="#fff4e6" opacity=".85"/><rect x="94" y="288" width="9" height="13" fill="#fff4e6" opacity=".85"/><rect x="72" y="318" width="9" height="13" fill="#fff4e6" opacity=".85"/><rect x="94" y="318" width="9" height="13" fill="#fff4e6" opacity=".85"/><rect x="94" y="348" width="9" height="13" fill="#fff4e6" opacity=".85"/><rect x="72" y="378" width="9" height="13" fill="#fff4e6" opacity=".85"/><rect x="94" y="378" width="9" height="13" fill="#fff4e6" opacity=".85"/><rect x="94" y="438" width="9" height="13" fill="#fff4e6" opacity=".85"/><rect x="144" y="362" width="95" height="108" rx="4" fill="#f2b78f"/><rect x="156" y="380" width="9" height="13" fill="#fff4e6" opacity=".85"/><rect x="178" y="380" width="9" height="13" fill="#fff4e6" opacity=".85"/><rect x="200" y="380" width="9" height="13" fill="#fff4e6" opacity=".85"/><rect x="222" y="380" width="9" height="13" fill="#fff4e6" opacity=".85"/><rect x="156" y="410" width="9" height="13" fill="#fff4e6" opacity=".85"/><rect x="178" y="410" width="9" height="13" fill="#fff4e6" opacity=".85"/><rect x="200" y="410" width="9" height="13" fill="#fff4e6" opacity=".85"/><rect x="222" y="410" width="9" height="13" fill="#fff4e6" opacity=".85"/><rect x="178" y="440" width="9" height="13" fill="#fff4e6" opacity=".85"/><rect x="222" y="440" width="9" height="13" fill="#fff4e6" opacity=".85"/><path d="M144 362 L191.5 328 L239 362 Z" fill="#f2b78f"/><rect x="261" y="337" width="75" height="133" rx="4" fill="#f2b78f"/><rect x="273" y="355" width="9" height="13" fill="#fff4e6" opacity=".85"/><rect x="295" y="355" width="9" height="13" fill="#fff4e6" opacity=".85"/><rect x="317" y="355" width="9" height="13" fill="#fff4e6" opacity=".85"/><rect x="295" y="385" width="9" height="13" fill="#fff4e6" opacity=".85"/><rect x="317" y="385" width="9" height="13" fill="#fff4e6" opacity=".85"/><rect x="295" y="415" width="9" height="13" fill="#fff4e6" opacity=".85"/><rect x="317" y="415" width="9" height="13" fill="#fff4e6" opacity=".85"/><rect x="273" y="445" width="9" height="13" fill="#fff4e6" opacity=".85"/><rect x="295" y="445" width="9" height="13" fill="#fff4e6" opacity=".85"/><rect x="317" y="445" width="9" height="13" fill="#fff4e6" opacity=".85"/><rect x="351" y="340" width="78" height="130" rx="4" fill="#f2b78f"/><rect x="363" y="358" width="9" height="13" fill="#fff4e6" opacity=".85"/><rect x="385" y="358" width="9" height="13" fill="#fff4e6" opacity=".85"/><rect x="407" y="358" width="9" height="13" fill="#fff4e6" opacity=".85"/><rect x="363" y="388" width="9" height="13" fill="#fff4e6" opacity=".85"/><rect x="385" y="388" width="9" height="13" fill="#fff4e6" opacity=".85"/><rect x="363" y="418" width="9" height="13" fill="#fff4e6" opacity=".85"/><rect x="385" y="418" width="9" height="13" fill="#fff4e6" opacity=".85"/><rect x="407" y="418" width="9" height="13" fill="#fff4e6" opacity=".85"/><rect x="462" y="320" width="79" height="150" rx="4" fill="#f2b78f"/><rect x="474" y="338" width="9" height="13" fill="#fff4e6" opacity=".85"/><rect x="496" y="338" width="9" height="13" fill="#fff4e6" opacity=".85"/><rect x="474" y="368" width="9" height="13" fill="#fff4e6" opacity=".85"/><rect x="496" y="368" width="9" height="13" fill="#fff4e6" opacity=".85"/><rect x="518" y="368" width="9" height="13" fill="#fff4e6" opacity=".85"/><rect x="474" y="398" width="9" height="13" fill="#fff4e6" opacity=".85"/><rect x="518" y="398" width="9" height="13" fill="#fff4e6" opacity=".85"/><rect x="474" y="428" width="9" height="13" fill="#fff4e6" opacity=".85"/><rect x="496" y="428" width="9" height="13" fill="#fff4e6" opacity=".85"/><rect x="518" y="428" width="9" height="13" fill="#fff4e6" opacity=".85"/><path d="M462 320 L501.5 286 L541 320 Z" fill="#f2b78f"/><rect x="559" y="265" width="119" height="205" rx="4" fill="#f2b78f"/><rect x="571" y="283" width="9" height="13" fill="#fff4e6" opacity=".85"/><rect x="593" y="283" width="9" height="13" fill="#fff4e6" opacity=".85"/><rect x="615" y="283" width="9" height="13" fill="#fff4e6" opacity=".85"/><rect x="615" y="313" width="9" height="13" fill="#fff4e6" opacity=".85"/><rect x="637" y="313" width="9" height="13" fill="#fff4e6" opacity=".85"/><rect x="659" y="313" width="9" height="13" fill="#fff4e6" opacity=".85"/><rect x="571" y="343" width="9" height="13" fill="#fff4e6" opacity=".85"/><rect x="615" y="343" width="9" height="13" fill="#fff4e6" opacity=".85"/><rect x="637" y="343" width="9" height="13" fill="#fff4e6" opacity=".85"/><rect x="659" y="343" width="9" height="13" fill="#fff4e6" opacity=".85"/><rect x="571" y="373" width="9" height="13" fill="#fff4e6" opacity=".85"/><rect x="593" y="373" width="9" height="13" fill="#fff4e6" opacity=".85"/><rect x="659" y="373" width="9" height="13" fill="#fff4e6" opacity=".85"/><rect x="593" y="403" width="9" height="13" fill="#fff4e6" opacity=".85"/><rect x="615" y="403" width="9" height="13" fill="#fff4e6" opacity=".85"/><rect x="637" y="403" width="9" height="13" fill="#fff4e6" opacity=".85"/><rect x="571" y="433" width="9" height="13" fill="#fff4e6" opacity=".85"/><rect x="593" y="433" width="9" height="13" fill="#fff4e6" opacity=".85"/><rect x="615" y="433" width="9" height="13" fill="#fff4e6" opacity=".85"/><rect x="637" y="433" width="9" height="13" fill="#fff4e6" opacity=".85"/><rect x="659" y="433" width="9" height="13" fill="#fff4e6" opacity=".85"/><path d="M559 265 L618.5 231 L678 265 Z" fill="#f2b78f"/><rect x="712" y="360" width="108" height="110" rx="4" fill="#f2b78f"/><rect x="724" y="378" width="9" height="13" fill="#fff4e6" opacity=".85"/><rect x="746" y="378" width="9" height="13" fill="#fff4e6" opacity=".85"/><rect x="768" y="378" width="9" height="13" fill="#fff4e6" opacity=".85"/><rect x="790" y="378" width="9" height="13" fill="#fff4e6" opacity=".85"/><rect x="724" y="408" width="9" height="13" fill="#fff4e6" opacity=".85"/><rect x="746" y="408" width="9" height="13" fill="#fff4e6" opacity=".85"/><rect x="790" y="408" width="9" height="13" fill="#fff4e6" opacity=".85"/><rect x="724" y="438" width="9" height="13" fill="#fff4e6" opacity=".85"/><rect x="855" y="344" width="61" height="126" rx="4" fill="#f2b78f"/><rect x="867" y="362" width="9" height="13" fill="#fff4e6" opacity=".85"/><rect x="867" y="392" width="9" height="13" fill="#fff4e6" opacity=".85"/><rect x="889" y="392" width="9" height="13" fill="#fff4e6" opacity=".85"/><rect x="889" y="422" width="9" height="13" fill="#fff4e6" opacity=".85"/><rect x="945" y="361" width="103" height="109" rx="4" fill="#f2b78f"/><rect x="957" y="379" width="9" height="13" fill="#fff4e6" opacity=".85"/><rect x="979" y="379" width="9" height="13" fill="#fff4e6" opacity=".85"/><rect x="1023" y="379" width="9" height="13" fill="#fff4e6" opacity=".85"/><rect x="1001" y="409" width="9" height="13" fill="#fff4e6" opacity=".85"/><rect x="1023" y="409" width="9" height="13" fill="#fff4e6" opacity=".85"/><rect x="979" y="439" width="9" height="13" fill="#fff4e6" opacity=".85"/><rect x="1001" y="439" width="9" height="13" fill="#fff4e6" opacity=".85"/><rect x="1023" y="439" width="9" height="13" fill="#fff4e6" opacity=".85"/><rect x="1073" y="303" width="100" height="167" rx="4" fill="#f2b78f"/><rect x="1085" y="321" width="9" height="13" fill="#fff4e6" opacity=".85"/><rect x="1129" y="321" width="9" height="13" fill="#fff4e6" opacity=".85"/><rect x="1151" y="321" width="9" height="13" fill="#fff4e6" opacity=".85"/><rect x="1085" y="351" width="9" height="13" fill="#fff4e6" opacity=".85"/><rect x="1085" y="381" width="9" height="13" fill="#fff4e6" opacity=".85"/><rect x="1107" y="381" width="9" height="13" fill="#fff4e6" opacity=".85"/><rect x="1129" y="381" width="9" height="13" fill="#fff4e6" opacity=".85"/><rect x="1107" y="411" width="9" height="13" fill="#fff4e6" opacity=".85"/><rect x="1129" y="411" width="9" height="13" fill="#fff4e6" opacity=".85"/><rect x="1151" y="411" width="9" height="13" fill="#fff4e6" opacity=".85"/><rect x="1085" y="441" width="9" height="13" fill="#fff4e6" opacity=".85"/><rect x="1107" y="441" width="9" height="13" fill="#fff4e6" opacity=".85"/><rect x="1129" y="441" width="9" height="13" fill="#fff4e6" opacity=".85"/><rect x="60" y="331" width="91" height="149" rx="4" fill="#c06b4a"/><rect x="94" y="349" width="9" height="13" fill="#fff4e6" opacity=".85"/><rect x="72" y="409" width="9" height="13" fill="#fff4e6" opacity=".85"/><rect x="94" y="409" width="9" height="13" fill="#fff4e6" opacity=".85"/><rect x="116" y="409" width="9" height="13" fill="#fff4e6" opacity=".85"/><rect x="94" y="439" width="9" height="13" fill="#fff4e6" opacity=".85"/><rect x="173" y="395" width="116" height="85" rx="4" fill="#c06b4a"/><rect x="251" y="413" width="9" height="13" fill="#fff4e6" opacity=".85"/><rect x="229" y="443" width="9" height="13" fill="#fff4e6" opacity=".85"/><rect x="251" y="443" width="9" height="13" fill="#fff4e6" opacity=".85"/><rect x="273" y="443" width="9" height="13" fill="#fff4e6" opacity=".85"/><path d="M173 395 L231 361 L289 395 Z" fill="#c06b4a"/><rect x="300" y="326" width="51" height="154" rx="4" fill="#c06b4a"/><rect x="312" y="374" width="9" height="13" fill="#fff4e6" opacity=".85"/><rect x="334" y="374" width="9" height="13" fill="#fff4e6" opacity=".85"/><rect x="312" y="404" width="9" height="13" fill="#fff4e6" opacity=".85"/><rect x="334" y="404" width="9" height="13" fill="#fff4e6" opacity=".85"/><rect x="312" y="434" width="9" height="13" fill="#fff4e6" opacity=".85"/><rect x="334" y="434" width="9" height="13" fill="#fff4e6" opacity=".85"/><rect x="364" y="372" width="91" height="108" rx="4" fill="#c06b4a"/><rect x="376" y="390" width="9" height="13" fill="#fff4e6" opacity=".85"/><rect x="398" y="390" width="9" height="13" fill="#fff4e6" opacity=".85"/><rect x="398" y="420" width="9" height="13" fill="#fff4e6" opacity=".85"/><rect x="398" y="450" width="9" height="13" fill="#fff4e6" opacity=".85"/><path d="M364 372 L409.5 338 L455 372 Z" fill="#c06b4a"/><rect x="491" y="371" width="106" height="109" rx="4" fill="#c06b4a"/><rect x="503" y="389" width="9" height="13" fill="#fff4e6" opacity=".85"/><rect x="525" y="389" width="9" height="13" fill="#fff4e6" opacity=".85"/><rect x="547" y="389" width="9" height="13" fill="#fff4e6" opacity=".85"/><rect x="569" y="389" width="9" height="13" fill="#fff4e6" opacity=".85"/><rect x="503" y="419" width="9" height="13" fill="#fff4e6" opacity=".85"/><rect x="525" y="419" width="9" height="13" fill="#fff4e6" opacity=".85"/><rect x="569" y="419" width="9" height="13" fill="#fff4e6" opacity=".85"/><rect x="503" y="449" width="9" height="13" fill="#fff4e6" opacity=".85"/><rect x="525" y="449" width="9" height="13" fill="#fff4e6" opacity=".85"/><rect x="547" y="449" width="9" height="13" fill="#fff4e6" opacity=".85"/><path d="M491 371 L544 337 L597 371 Z" fill="#c06b4a"/><rect x="625" y="385" width="86" height="95" rx="4" fill="#c06b4a"/><rect x="659" y="403" width="9" height="13" fill="#fff4e6" opacity=".85"/><rect x="681" y="403" width="9" height="13" fill="#fff4e6" opacity=".85"/><rect x="659" y="433" width="9" height="13" fill="#fff4e6" opacity=".85"/><rect x="740" y="287" width="110" height="193" rx="4" fill="#c06b4a"/><rect x="818" y="335" width="9" height="13" fill="#fff4e6" opacity=".85"/><rect x="752" y="365" width="9" height="13" fill="#fff4e6" opacity=".85"/><rect x="818" y="365" width="9" height="13" fill="#fff4e6" opacity=".85"/><rect x="774" y="395" width="9" height="13" fill="#fff4e6" opacity=".85"/><rect x="796" y="395" width="9" height="13" fill="#fff4e6" opacity=".85"/><rect x="818" y="395" width="9" height="13" fill="#fff4e6" opacity=".85"/><rect x="752" y="425" width="9" height="13" fill="#fff4e6" opacity=".85"/><rect x="774" y="425" width="9" height="13" fill="#fff4e6" opacity=".85"/><rect x="752" y="455" width="9" height="13" fill="#fff4e6" opacity=".85"/><rect x="774" y="455" width="9" height="13" fill="#fff4e6" opacity=".85"/><path d="M740 287 L795 253 L850 287 Z" fill="#c06b4a"/><rect x="865" y="292" width="61" height="188" rx="4" fill="#c06b4a"/><rect x="877" y="310" width="9" height="13" fill="#fff4e6" opacity=".85"/><rect x="877" y="340" width="9" height="13" fill="#fff4e6" opacity=".85"/><rect x="899" y="340" width="9" height="13" fill="#fff4e6" opacity=".85"/><rect x="877" y="400" width="9" height="13" fill="#fff4e6" opacity=".85"/><rect x="899" y="400" width="9" height="13" fill="#fff4e6" opacity=".85"/><rect x="899" y="430" width="9" height="13" fill="#fff4e6" opacity=".85"/><rect x="939" y="399" width="101" height="81" rx="4" fill="#c06b4a"/><rect x="973" y="417" width="9" height="13" fill="#fff4e6" opacity=".85"/><rect x="995" y="417" width="9" height="13" fill="#fff4e6" opacity=".85"/><rect x="1017" y="417" width="9" height="13" fill="#fff4e6" opacity=".85"/><rect x="973" y="447" width="9" height="13" fill="#fff4e6" opacity=".85"/><rect x="995" y="447" width="9" height="13" fill="#fff4e6" opacity=".85"/><rect x="1017" y="447" width="9" height="13" fill="#fff4e6" opacity=".85"/><rect x="1060" y="355" width="87" height="125" rx="4" fill="#c06b4a"/><rect x="1116" y="373" width="9" height="13" fill="#fff4e6" opacity=".85"/><rect x="1072" y="403" width="9" height="13" fill="#fff4e6" opacity=".85"/><rect x="1094" y="433" width="9" height="13" fill="#fff4e6" opacity=".85"/><rect x="1116" y="433" width="9" height="13" fill="#fff4e6" opacity=".85"/><path d="M1060 355 L1103.5 321 L1147 355 Z" fill="#c06b4a"/><rect x="0" y="480" width="1200" height="205" fill="#fff4e6"/><rect x="14" y="14" width="1172" height="647" rx="26" fill="none" stroke="#fff" stroke-width="10" stroke-dasharray="2 18" stroke-linecap="round"/></svg>
