<svg xmlns="http://www.w3.org/2000/svg" viewBox="0 0 1200 675" role="img" aria-labelledby="t"><title id="t">Philadelphia illustration</title><rect width="1200" height="675" fill="#fde3cc"/><circle cx="780" cy="179" r="58" fill="#ffd27a" opacity=".95"/><rect x="60" y="364" width="54" height="106" rx="4" fill="#f2b78f"/><rect x="94" y="382" width="9" height="13" fill="#fff4e6" opacity=".85"/><rect x="72" y="412" width="9" height="13" fill="#fff4e6" opacity=".85"/><rect x="94" y="412" width="9" height="13" fill="#fff4e6" opacity=".85"/><rect x="94" y="442" width="9" height="13" fill="#fff4e6" opacity=".85"/><rect x="133" y="347" width="116" height="123" rx="4" fill="#f2b78f"/><rect x="167" y="365" width="9" height="13" fill="#fff4e6" opacity=".85"/><rect x="189" y="365" width="9" height="13" fill="#fff4e6" opacity=".85"/><rect x="233" y="365" width="9" height="13" fill="#fff4e6" opacity=".85"/><rect x="145" y="395" width="9" height="13" fill="#fff4e6" opacity=".85"/><rect x="167" y="395" width="9" height="13" fill="#fff4e6" opacity=".85"/><rect x="189" y="395" width="9" height="13" fill="#fff4e6" opacity=".85"/><rect x="211" y="395" width="9" height="13" fill="#fff4e6" opacity=".85"/><rect x="233" y="395" width="9" height="13" fill="#fff4e6" opacity=".85"/><rect x="145" y="425" width="9" height="13" fill="#fff4e6" opacity=".85"/><rect x="211" y="425" width="9" height="13" fill="#fff4e6" opacity=".85"/><rect x="261" y="300" width="78" height="170" rx="4" fill="#f2b78f"/><rect x="273" y="318" width="9" height="13" fill="#fff4e6" opacity=".85"/><rect x="317" y="318" width="9" height="13" fill="#fff4e6" opacity=".85"/><rect x="273" y="348" width="9" height="13" fill="#fff4e6" opacity=".85"/><rect x="317" y="348" width="9" height="13" fill="#fff4e6" opacity=".85"/><rect x="273" y="378" width="9" height="13" fill="#fff4e6" opacity=".85"/><rect x="317" y="408" width="9" height="13" fill="#fff4e6" opacity=".85"/><rect x="363" y="329" width="70" height="141" rx="4" fill="#f2b78f"/><rect x="375" y="347" width="9" height="13" fill="#fff4e6" opacity=".85"/><rect x="375" y="377" width="9" height="13" fill="#fff4e6" opacity=".85"/><rect x="397" y="377" width="9" height="13" fill="#fff4e6" opacity=".85"/><rect x="397" y="407" width="9" height="13" fill="#fff4e6" opacity=".85"/><rect x="375" y="437" width="9" height="13" fill="#fff4e6" opacity=".85"/><rect x="451" y="292" width="109" height="178" rx="4" fill="#f2b78f"/><rect x="463" y="310" width="9" height="13" fill="#fff4e6" opacity=".85"/><rect x="485" y="310" width="9" height="13" fill="#fff4e6" opacity=".85"/><rect x="463" y="340" width="9" height="13" fill="#fff4e6" opacity=".85"/><rect x="507" y="340" width="9" height="13" fill="#fff4e6" opacity=".85"/><rect x="463" y="370" width="9" height="13" fill="#fff4e6" opacity=".85"/><rect x="485" y="370" width="9" height="13" fill="#fff4e6" opacity=".85"/><rect x="529" y="370" width="9" height="13" fill="#fff4e6" opacity=".85"/><rect x="485" y="400" width="9" height="13" fill="#fff4e6" opacity=".85"/><rect x="507" y="400" width="9" height="13" fill="#fff4e6" opacity=".85"/><rect x="485" y="430" width="9" height="13" fill="#fff4e6" opacity=".85"/><rect x="507" y="430" width="9" height="13" fill="#fff4e6" opacity=".85"/><rect x="529" y="430" width="9" height="13" fill="#fff4e6" opacity=".85"/><path d="M451 292 L505.5 258 L560 292 Z" fill="#f2b78f"/><rect x="589" y="378" width="114" height="92" rx="4" fill="#f2b78f"/><rect x="601" y="396" width="9" height="13" fill="#fff4e6" opacity=".85"/><rect x="623" y="396" width="9" height="13" fill="#fff4e6" opacity=".85"/><rect x="601" y="426" width="9" height="13" fill="#fff4e6" opacity=".85"/><rect x="645" y="426" width="9" height="13" fill="#fff4e6" opacity=".85"/><rect x="667" y="426" width="9" height="13" fill="#fff4e6" opacity=".85"/><rect x="738" y="379" width="83" height="91" rx="4" fill="#f2b78f"/><rect x="750" y="397" width="9" height="13" fill="#fff4e6" opacity=".85"/><rect x="794" y="397" width="9" height="13" fill="#fff4e6" opacity=".85"/><rect x="750" y="427" width="9" height="13" fill="#fff4e6" opacity=".85"/><rect x="772" y="427" width="9" height="13" fill="#fff4e6" opacity=".85"/><rect x="794" y="427" width="9" height="13" fill="#fff4e6" opacity=".85"/><rect x="834" y="236" width="57" height="234" rx="4" fill="#f2b78f"/><rect x="846" y="254" width="9" height="13" fill="#fff4e6" opacity=".85"/><rect x="868" y="254" width="9" height="13" fill="#fff4e6" opacity=".85"/><rect x="846" y="284" width="9" height="13" fill="#fff4e6" opacity=".85"/><rect x="846" y="314" width="9" height="13" fill="#fff4e6" opacity=".85"/><rect x="846" y="344" width="9" height="13" fill="#fff4e6" opacity=".85"/><rect x="868" y="344" width="9" height="13" fill="#fff4e6" opacity=".85"/><rect x="846" y="404" width="9" height="13" fill="#fff4e6" opacity=".85"/><rect x="868" y="434" width="9" height="13" fill="#fff4e6" opacity=".85"/><rect x="923" y="314" width="58" height="156" rx="4" fill="#f2b78f"/><rect x="935" y="332" width="9" height="13" fill="#fff4e6" opacity=".85"/><rect x="957" y="332" width="9" height="13" fill="#fff4e6" opacity=".85"/><rect x="935" y="362" width="9" height="13" fill="#fff4e6" opacity=".85"/><rect x="957" y="362" width="9" height="13" fill="#fff4e6" opacity=".85"/><rect x="935" y="392" width="9" height="13" fill="#fff4e6" opacity=".85"/><rect x="957" y="392" width="9" height="13" fill="#fff4e6" opacity=".85"/><rect x="935" y="422" width="9" height="13" fill="#fff4e6" opacity=".85"/><rect x="957" y="422" width="9" height="13" fill="#fff4e6" opacity=".85"/><path d="M923 314 L952 280 L981 314 Z" fill="#f2b78f"/><rect x="997" y="253" width="119" height="217" rx="4" fill="#f2b78f"/><rect x="1053" y="271" width="9" height="13" fill="#fff4e6" opacity=".85"/><rect x="1075" y="271" width="9" height="13" fill="#fff4e6" opacity=".85"/><rect x="1097" y="271" width="9" height="13" fill="#fff4e6" opacity=".85"/><rect x="1009" y="301" width="9" height="13" fill="#fff4e6" opacity=".85"/><rect x="1097" y="301" width="9" height="13" fill="#fff4e6" opacity=".85"/><rect x="1009" y="331" width="9" height="13" fill="#fff4e6" opacity=".85"/><rect x="1031" y="331" width="9" height="13" fill="#fff4e6" opacity=".85"/><rect x="1075" y="331" width="9" height="13" fill="#fff4e6" opacity=".85"/><rect x="1097" y="331" width="9" height="13" fill="#fff4e6" opacity=".85"/><rect x="1009" y="361" width="9" height="13" fill="#fff4e6" opacity=".85"/><rect x="1031" y="361" width="9" height="13" fill="#fff4e6" opacity=".85"/><rect x="1053" y="361" width="9" height="13" fill="#fff4e6" opacity=".85"/><rect x="1075" y="361" width="9" height="13" fill="#fff4e6" opacity=".85"/><rect x="1097" y="361" width="9" height="13" fill="#fff4e6" opacity=".85"/><rect x="1097" y="391" width="9" height="13" fill="#fff4e6" opacity=".85"/><rect x="1009" y="421" width="9" height="13" fill="#fff4e6" opacity=".85"/><rect x="1031" y="421" width="9" height="13" fill="#fff4e6" opacity=".85"/><rect x="1053" y="421" width="9" height="13" fill="#fff4e6" opacity=".85"/><rect x="60" y="290" width="103" height="190" rx="4" fill="#c06b4a"/><rect x="72" y="308" width="9" height="13" fill="#fff4e6" opacity=".85"/><rect x="94" y="308" width="9" height="13" fill="#fff4e6" opacity=".85"/><rect x="116" y="308" width="9" height="13" fill="#fff4e6" opacity=".85"/><rect x="72" y="338" width="9" height="13" fill="#fff4e6" opacity=".85"/><rect x="116" y="338" width="9" height="13" fill="#fff4e6" opacity=".85"/><rect x="138" y="338" width="9" height="13" fill="#fff4e6" opacity=".85"/><rect x="138" y="368" width="9" height="13" fill="#fff4e6" opacity=".85"/><rect x="116" y="398" width="9" height="13" fill="#fff4e6" opacity=".85"/><rect x="138" y="398" width="9" height="13" fill="#fff4e6" opacity=".85"/><rect x="116" y="428" width="9" height="13" fill="#fff4e6" opacity=".85"/><rect x="138" y="428" width="9" height="13" fill="#fff4e6" opacity=".85"/><rect x="176" y="334" width="54" height="146" rx="4" fill="#c06b4a"/><rect x="188" y="352" width="9" height="13" fill="#fff4e6" opacity=".85"/><rect x="210" y="352" width="9" height="13" fill="#fff4e6" opacity=".85"/><rect x="188" y="382" width="9" height="13" fill="#fff4e6" opacity=".85"/><rect x="210" y="412" width="9" height="13" fill="#fff4e6" opacity=".85"/><rect x="188" y="442" width="9" height="13" fill="#fff4e6" opacity=".85"/><rect x="210" y="442" width="9" height="13" fill="#fff4e6" opacity=".85"/><rect x="243" y="337" width="84" height="143" rx="4" fill="#c06b4a"/><rect x="277" y="355" width="9" height="13" fill="#fff4e6" opacity=".85"/><rect x="277" y="385" width="9" height="13" fill="#fff4e6" opacity=".85"/><rect x="299" y="385" width="9" height="13" fill="#fff4e6" opacity=".85"/><rect x="255" y="415" width="9" height="13" fill="#fff4e6" opacity=".85"/><rect x="277" y="415" width="9" height="13" fill="#fff4e6" opacity=".85"/><rect x="277" y="445" width="9" height="13" fill="#fff4e6" opacity=".85"/><rect x="299" y="445" width="9" height="13" fill="#fff4e6" opacity=".85"/><path d="M243 337 L285 303 L327 337 Z" fill="#c06b4a"/><rect x="351" y="330" width="105" height="150" rx="4" fill="#c06b4a"/><rect x="363" y="348" width="9" height="13" fill="#fff4e6" opacity=".85"/><rect x="385" y="348" width="9" height="13" fill="#fff4e6" opacity=".85"/><rect x="407" y="348" width="9" height="13" fill="#fff4e6" opacity=".85"/><rect x="429" y="348" width="9" height="13" fill="#fff4e6" opacity=".85"/><rect x="363" y="378" width="9" height="13" fill="#fff4e6" opacity=".85"/><rect x="407" y="378" width="9" height="13" fill="#fff4e6" opacity=".85"/><rect x="385" y="438" width="9" height="13" fill="#fff4e6" opacity=".85"/><rect x="407" y="438" width="9" height="13" fill="#fff4e6" opacity=".85"/><rect x="429" y="438" width="9" height="13" fill="#fff4e6" opacity=".85"/><path d="M351 330 L403.5 296 L456 330 Z" fill="#c06b4a"/><rect x="485" y="369" width="72" height="111" rx="4" fill="#c06b4a"/><rect x="497" y="387" width="9" height="13" fill="#fff4e6" opacity=".85"/><rect x="541" y="417" width="9" height="13" fill="#fff4e6" opacity=".85"/><rect x="497" y="447" width="9" height="13" fill="#fff4e6" opacity=".85"/><rect x="541" y="447" width="9" height="13" fill="#fff4e6" opacity=".85"/><rect x="573" y="373" width="99" height="107" rx="4" fill="#c06b4a"/><rect x="585" y="391" width="9" height="13" fill="#fff4e6" opacity=".85"/><rect x="607" y="391" width="9" height="13" fill="#fff4e6" opacity=".85"/><rect x="629" y="391" width="9" height="13" fill="#fff4e6" opacity=".85"/><rect x="651" y="391" width="9" height="13" fill="#fff4e6" opacity=".85"/><rect x="585" y="421" width="9" height="13" fill="#fff4e6" opacity=".85"/><rect x="607" y="421" width="9" height="13" fill="#fff4e6" opacity=".85"/><rect x="651" y="421" width="9" height="13" fill="#fff4e6" opacity=".85"/><rect x="607" y="451" width="9" height="13" fill="#fff4e6" opacity=".85"/><rect x="629" y="451" width="9" height="13" fill="#fff4e6" opacity=".85"/><rect x="651" y="451" width="9" height="13" fill="#fff4e6" opacity=".85"/><path d="M573 373 L622.5 339 L672 373 Z" fill="#c06b4a"/><rect x="694" y="345" width="54" height="135" rx="4" fill="#c06b4a"/><rect x="706" y="363" width="9" height="13" fill="#fff4e6" opacity=".85"/><rect x="706" y="393" width="9" height="13" fill="#fff4e6" opacity=".85"/><rect x="728" y="393" width="9" height="13" fill="#fff4e6" opacity=".85"/><rect x="728" y="453" width="9" height="13" fill="#fff4e6" opacity=".85"/><rect x="760" y="284" width="63" height="196" rx="4" fill="#c06b4a"/><rect x="794" y="302" width="9" height="13" fill="#fff4e6" opacity=".85"/><rect x="772" y="332" width="9" height="13" fill="#fff4e6" opacity=".85"/><rect x="794" y="362" width="9" height="13" fill="#fff4e6" opacity=".85"/><rect x="772" y="392" width="9" height="13" fill="#fff4e6" opacity=".85"/><rect x="794" y="392" width="9" height="13" fill="#fff4e6" opacity=".85"/><rect x="794" y="422" width="9" height="13" fill="#fff4e6" opacity=".85"/><rect x="772" y="452" width="9" height="13" fill="#fff4e6" opacity=".85"/><rect x="794" y="452" width="9" height="13" fill="#fff4e6" opacity=".85"/><rect x="833" y="386" width="109" height="94" rx="4" fill="#c06b4a"/><rect x="845" y="434" width="9" height="13" fill="#fff4e6" opacity=".85"/><rect x="867" y="434" width="9" height="13" fill="#fff4e6" opacity=".85"/><rect x="966" y="356" width="110" height="124" rx="4" fill="#c06b4a"/><rect x="978" y="374" width="9" height="13" fill="#fff4e6" opacity=".85"/><rect x="1000" y="374" width="9" height="13" fill="#fff4e6" opacity=".85"/><rect x="1022" y="374" width="9" height="13" fill="#fff4e6" opacity=".85"/><rect x="1044" y="374" width="9" height="13" fill="#fff4e6" opacity=".85"/><rect x="978" y="404" width="9" height="13" fill="#fff4e6" opacity=".85"/><rect x="1022" y="404" width="9" height="13" fill="#fff4e6" opacity=".85"/><rect x="1044" y="404" width="9" height="13" fill="#fff4e6" opacity=".85"/><rect x="1000" y="434" width="9" height="13" fill="#fff4e6" opacity=".85"/><rect x="1022" y="434" width="9" height="13" fill="#fff4e6" opacity=".85"/><rect x="1112" y="386" width="109" height="94" rx="4" fill="#c06b4a"/><rect x="1124" y="404" width="9" height="13" fill="#fff4e6" opacity=".85"/><rect x="1146" y="404" width="9" height="13" fill="#fff4e6" opacity=".85"/><rect x="1168" y="404" width="9" height="13" fill="#fff4e6" opacity=".85"/><rect x="1190" y="404" width="9" height="13" fill="#fff4e6" opacity=".85"/><rect x="1124" y="434" width="9" height="13" fill="#fff4e6" opacity=".85"/><rect x="1146" y="434" width="9" height="13" fill="#fff4e6" opacity=".85"/><rect x="1190" y="434" width="9" height="13" fill="#fff4e6" opacity=".85"/><rect x="0" y="480" width="1200" height="205" fill="#fff4e6"/><rect x="14" y="14" width="1172" height="647" rx="26" fill="none" stroke="#fff" stroke-width="10" stroke-dasharray="2 18" stroke-linecap="round"/></svg>
