<svg xmlns="http://www.w3.org/2000/svg" viewBox="0 0 1200 675" role="img" aria-labelledby="t"><title id="t">Tallinn illustration</title><rect width="1200" height="675" fill="#fde3cc"/><circle cx="600" cy="151" r="58" fill="#ffd27a" opacity=".95"/><rect x="60" y="366" width="91" height="104" rx="4" fill="#f2b78f"/><rect x="72" y="384" width="9" height="13" fill="#fff4e6" opacity=".85"/><rect x="94" y="384" width="9" height="13" fill="#fff4e6" opacity=".85"/><rect x="72" y="414" width="9" height="13" fill="#fff4e6" opacity=".85"/><rect x="72" y="444" width="9" height="13" fill="#fff4e6" opacity=".85"/><rect x="186" y="341" width="65" height="129" rx="4" fill="#f2b78f"/><rect x="220" y="359" width="9" height="13" fill="#fff4e6" opacity=".85"/><rect x="198" y="389" width="9" height="13" fill="#fff4e6" opacity=".85"/><rect x="220" y="389" width="9" height="13" fill="#fff4e6" opacity=".85"/><rect x="198" y="419" width="9" height="13" fill="#fff4e6" opacity=".85"/><rect x="269" y="355" width="104" height="115" rx="4" fill="#f2b78f"/><rect x="281" y="373" width="9" height="13" fill="#fff4e6" opacity=".85"/><rect x="303" y="373" width="9" height="13" fill="#fff4e6" opacity=".85"/><rect x="325" y="373" width="9" height="13" fill="#fff4e6" opacity=".85"/><rect x="347" y="373" width="9" height="13" fill="#fff4e6" opacity=".85"/><rect x="281" y="403" width="9" height="13" fill="#fff4e6" opacity=".85"/><rect x="303" y="403" width="9" height="13" fill="#fff4e6" opacity=".85"/><rect x="325" y="403" width="9" height="13" fill="#fff4e6" opacity=".85"/><rect x="347" y="403" width="9" height="13" fill="#fff4e6" opacity=".85"/><rect x="281" y="433" width="9" height="13" fill="#fff4e6" opacity=".85"/><rect x="347" y="433" width="9" height="13" fill="#fff4e6" opacity=".85"/><rect x="395" y="378" width="120" height="92" rx="4" fill="#f2b78f"/><rect x="429" y="396" width="9" height="13" fill="#fff4e6" opacity=".85"/><rect x="473" y="396" width="9" height="13" fill="#fff4e6" opacity=".85"/><rect x="429" y="426" width="9" height="13" fill="#fff4e6" opacity=".85"/><rect x="451" y="426" width="9" height="13" fill="#fff4e6" opacity=".85"/><rect x="473" y="426" width="9" height="13" fill="#fff4e6" opacity=".85"/><rect x="495" y="426" width="9" height="13" fill="#fff4e6" opacity=".85"/><rect x="539" y="362" width="79" height="108" rx="4" fill="#f2b78f"/><rect x="551" y="380" width="9" height="13" fill="#fff4e6" opacity=".85"/><rect x="551" y="410" width="9" height="13" fill="#fff4e6" opacity=".85"/><rect x="573" y="410" width="9" height="13" fill="#fff4e6" opacity=".85"/><rect x="551" y="440" width="9" height="13" fill="#fff4e6" opacity=".85"/><rect x="637" y="244" width="81" height="226" rx="4" fill="#f2b78f"/><rect x="649" y="262" width="9" height="13" fill="#fff4e6" opacity=".85"/><rect x="671" y="262" width="9" height="13" fill="#fff4e6" opacity=".85"/><rect x="693" y="262" width="9" height="13" fill="#fff4e6" opacity=".85"/><rect x="649" y="292" width="9" height="13" fill="#fff4e6" opacity=".85"/><rect x="671" y="292" width="9" height="13" fill="#fff4e6" opacity=".85"/><rect x="649" y="322" width="9" height="13" fill="#fff4e6" opacity=".85"/><rect x="671" y="322" width="9" height="13" fill="#fff4e6" opacity=".85"/><rect x="693" y="352" width="9" height="13" fill="#fff4e6" opacity=".85"/><rect x="649" y="382" width="9" height="13" fill="#fff4e6" opacity=".85"/><rect x="671" y="382" width="9" height="13" fill="#fff4e6" opacity=".85"/><rect x="649" y="412" width="9" height="13" fill="#fff4e6" opacity=".85"/><rect x="693" y="412" width="9" height="13" fill="#fff4e6" opacity=".85"/><rect x="649" y="442" width="9" height="13" fill="#fff4e6" opacity=".85"/><rect x="671" y="442" width="9" height="13" fill="#fff4e6" opacity=".85"/><path d="M637 244 L677.5 210 L718 244 Z" fill="#f2b78f"/><rect x="731" y="324" width="61" height="146" rx="4" fill="#f2b78f"/><rect x="743" y="342" width="9" height="13" fill="#fff4e6" opacity=".85"/><rect x="765" y="342" width="9" height="13" fill="#fff4e6" opacity=".85"/><rect x="743" y="372" width="9" height="13" fill="#fff4e6" opacity=".85"/><rect x="765" y="372" width="9" height="13" fill="#fff4e6" opacity=".85"/><rect x="765" y="402" width="9" height="13" fill="#fff4e6" opacity=".85"/><rect x="743" y="432" width="9" height="13" fill="#fff4e6" opacity=".85"/><rect x="765" y="432" width="9" height="13" fill="#fff4e6" opacity=".85"/><rect x="807" y="239" width="78" height="231" rx="4" fill="#f2b78f"/><rect x="841" y="257" width="9" height="13" fill="#fff4e6" opacity=".85"/><rect x="863" y="257" width="9" height="13" fill="#fff4e6" opacity=".85"/><rect x="819" y="287" width="9" height="13" fill="#fff4e6" opacity=".85"/><rect x="841" y="287" width="9" height="13" fill="#fff4e6" opacity=".85"/><rect x="863" y="287" width="9" height="13" fill="#fff4e6" opacity=".85"/><rect x="819" y="317" width="9" height="13" fill="#fff4e6" opacity=".85"/><rect x="841" y="317" width="9" height="13" fill="#fff4e6" opacity=".85"/><rect x="841" y="347" width="9" height="13" fill="#fff4e6" opacity=".85"/><rect x="863" y="377" width="9" height="13" fill="#fff4e6" opacity=".85"/><rect x="819" y="407" width="9" height="13" fill="#fff4e6" opacity=".85"/><rect x="841" y="407" width="9" height="13" fill="#fff4e6" opacity=".85"/><rect x="863" y="407" width="9" height="13" fill="#fff4e6" opacity=".85"/><rect x="819" y="437" width="9" height="13" fill="#fff4e6" opacity=".85"/><rect x="841" y="437" width="9" height="13" fill="#fff4e6" opacity=".85"/><path d="M807 239 L846 205 L885 239 Z" fill="#f2b78f"/><rect x="900" y="331" width="115" height="139" rx="4" fill="#f2b78f"/><rect x="912" y="349" width="9" height="13" fill="#fff4e6" opacity=".85"/><rect x="956" y="349" width="9" height="13" fill="#fff4e6" opacity=".85"/><rect x="912" y="379" width="9" height="13" fill="#fff4e6" opacity=".85"/><rect x="956" y="379" width="9" height="13" fill="#fff4e6" opacity=".85"/><rect x="978" y="379" width="9" height="13" fill="#fff4e6" opacity=".85"/><rect x="1000" y="379" width="9" height="13" fill="#fff4e6" opacity=".85"/><rect x="912" y="409" width="9" height="13" fill="#fff4e6" opacity=".85"/><rect x="1000" y="409" width="9" height="13" fill="#fff4e6" opacity=".85"/><rect x="934" y="439" width="9" height="13" fill="#fff4e6" opacity=".85"/><rect x="978" y="439" width="9" height="13" fill="#fff4e6" opacity=".85"/><rect x="1000" y="439" width="9" height="13" fill="#fff4e6" opacity=".85"/><rect x="1036" y="363" width="87" height="107" rx="4" fill="#f2b78f"/><rect x="1048" y="381" width="9" height="13" fill="#fff4e6" opacity=".85"/><rect x="1070" y="381" width="9" height="13" fill="#fff4e6" opacity=".85"/><rect x="1092" y="381" width="9" height="13" fill="#fff4e6" opacity=".85"/><rect x="1048" y="411" width="9" height="13" fill="#fff4e6" opacity=".85"/><rect x="1070" y="411" width="9" height="13" fill="#fff4e6" opacity=".85"/><rect x="1048" y="441" width="9" height="13" fill="#fff4e6" opacity=".85"/><rect x="1070" y="441" width="9" height="13" fill="#fff4e6" opacity=".85"/><rect x="1092" y="441" width="9" height="13" fill="#fff4e6" opacity=".85"/><path d="M1036 363 L1079.5 329 L1123 363 Z" fill="#f2b78f"/><rect x="1134" y="337" width="92" height="133" rx="4" fill="#f2b78f"/><rect x="1146" y="355" width="9" height="13" fill="#fff4e6" opacity=".85"/><rect x="1168" y="355" width="9" height="13" fill="#fff4e6" opacity=".85"/><rect x="1190" y="355" width="9" height="13" fill="#fff4e6" opacity=".85"/><rect x="1168" y="385" width="9" height="13" fill="#fff4e6" opacity=".85"/><rect x="1190" y="385" width="9" height="13" fill="#fff4e6" opacity=".85"/><rect x="1146" y="415" width="9" height="13" fill="#fff4e6" opacity=".85"/><rect x="1146" y="445" width="9" height="13" fill="#fff4e6" opacity=".85"/><rect x="1190" y="445" width="9" height="13" fill="#fff4e6" opacity=".85"/><rect x="60" y="368" width="93" height="112" rx="4" fill="#c06b4a"/><rect x="94" y="386" width="9" height="13" fill="#fff4e6" opacity=".85"/><rect x="116" y="386" width="9" height="13" fill="#fff4e6" opacity=".85"/><rect x="72" y="416" width="9" height="13" fill="#fff4e6" opacity=".85"/><rect x="138" y="416" width="9" height="13" fill="#fff4e6" opacity=".85"/><rect x="72" y="446" width="9" height="13" fill="#fff4e6" opacity=".85"/><rect x="94" y="446" width="9" height="13" fill="#fff4e6" opacity=".85"/><rect x="116" y="446" width="9" height="13" fill="#fff4e6" opacity=".85"/><rect x="138" y="446" width="9" height="13" fill="#fff4e6" opacity=".85"/><path d="M60 368 L106.5 334 L153 368 Z" fill="#c06b4a"/><rect x="180" y="301" width="106" height="179" rx="4" fill="#c06b4a"/><rect x="236" y="319" width="9" height="13" fill="#fff4e6" opacity=".85"/><rect x="192" y="349" width="9" height="13" fill="#fff4e6" opacity=".85"/><rect x="214" y="349" width="9" height="13" fill="#fff4e6" opacity=".85"/><rect x="236" y="349" width="9" height="13" fill="#fff4e6" opacity=".85"/><rect x="258" y="349" width="9" height="13" fill="#fff4e6" opacity=".85"/><rect x="236" y="379" width="9" height="13" fill="#fff4e6" opacity=".85"/><rect x="258" y="379" width="9" height="13" fill="#fff4e6" opacity=".85"/><rect x="192" y="409" width="9" height="13" fill="#fff4e6" opacity=".85"/><rect x="236" y="409" width="9" height="13" fill="#fff4e6" opacity=".85"/><rect x="258" y="409" width="9" height="13" fill="#fff4e6" opacity=".85"/><rect x="236" y="439" width="9" height="13" fill="#fff4e6" opacity=".85"/><rect x="300" y="330" width="89" height="150" rx="4" fill="#c06b4a"/><rect x="312" y="348" width="9" height="13" fill="#fff4e6" opacity=".85"/><rect x="334" y="348" width="9" height="13" fill="#fff4e6" opacity=".85"/><rect x="356" y="348" width="9" height="13" fill="#fff4e6" opacity=".85"/><rect x="312" y="378" width="9" height="13" fill="#fff4e6" opacity=".85"/><rect x="334" y="378" width="9" height="13" fill="#fff4e6" opacity=".85"/><rect x="334" y="408" width="9" height="13" fill="#fff4e6" opacity=".85"/><rect x="356" y="408" width="9" height="13" fill="#fff4e6" opacity=".85"/><rect x="312" y="438" width="9" height="13" fill="#fff4e6" opacity=".85"/><rect x="356" y="438" width="9" height="13" fill="#fff4e6" opacity=".85"/><path d="M300 330 L344.5 296 L389 330 Z" fill="#c06b4a"/><rect x="419" y="383" width="112" height="97" rx="4" fill="#c06b4a"/><rect x="431" y="401" width="9" height="13" fill="#fff4e6" opacity=".85"/><rect x="497" y="401" width="9" height="13" fill="#fff4e6" opacity=".85"/><rect x="431" y="431" width="9" height="13" fill="#fff4e6" opacity=".85"/><rect x="453" y="431" width="9" height="13" fill="#fff4e6" opacity=".85"/><rect x="475" y="431" width="9" height="13" fill="#fff4e6" opacity=".85"/><rect x="542" y="382" width="76" height="98" rx="4" fill="#c06b4a"/><rect x="554" y="400" width="9" height="13" fill="#fff4e6" opacity=".85"/><rect x="554" y="430" width="9" height="13" fill="#fff4e6" opacity=".85"/><rect x="576" y="430" width="9" height="13" fill="#fff4e6" opacity=".85"/><path d="M542 382 L580 348 L618 382 Z" fill="#c06b4a"/><rect x="653" y="283" width="72" height="197" rx="4" fill="#c06b4a"/><rect x="687" y="301" width="9" height="13" fill="#fff4e6" opacity=".85"/><rect x="665" y="331" width="9" height="13" fill="#fff4e6" opacity=".85"/><rect x="687" y="331" width="9" height="13" fill="#fff4e6" opacity=".85"/><rect x="709" y="331" width="9" height="13" fill="#fff4e6" opacity=".85"/><rect x="665" y="361" width="9" height="13" fill="#fff4e6" opacity=".85"/><rect x="687" y="361" width="9" height="13" fill="#fff4e6" opacity=".85"/><rect x="709" y="361" width="9" height="13" fill="#fff4e6" opacity=".85"/><rect x="687" y="391" width="9" height="13" fill="#fff4e6" opacity=".85"/><rect x="709" y="391" width="9" height="13" fill="#fff4e6" opacity=".85"/><rect x="687" y="421" width="9" height="13" fill="#fff4e6" opacity=".85"/><rect x="709" y="421" width="9" height="13" fill="#fff4e6" opacity=".85"/><rect x="665" y="451" width="9" height="13" fill="#fff4e6" opacity=".85"/><rect x="709" y="451" width="9" height="13" fill="#fff4e6" opacity=".85"/><rect x="745" y="386" width="56" height="94" rx="4" fill="#c06b4a"/><rect x="779" y="434" width="9" height="13" fill="#fff4e6" opacity=".85"/><path d="M745 386 L773 352 L801 386 Z" fill="#c06b4a"/><rect x="833" y="381" width="106" height="99" rx="4" fill="#c06b4a"/><rect x="845" y="399" width="9" height="13" fill="#fff4e6" opacity=".85"/><rect x="889" y="399" width="9" height="13" fill="#fff4e6" opacity=".85"/><rect x="911" y="399" width="9" height="13" fill="#fff4e6" opacity=".85"/><rect x="867" y="429" width="9" height="13" fill="#fff4e6" opacity=".85"/><rect x="889" y="429" width="9" height="13" fill="#fff4e6" opacity=".85"/><rect x="911" y="429" width="9" height="13" fill="#fff4e6" opacity=".85"/><rect x="962" y="390" width="115" height="90" rx="4" fill="#c06b4a"/><rect x="1040" y="408" width="9" height="13" fill="#fff4e6" opacity=".85"/><rect x="1062" y="408" width="9" height="13" fill="#fff4e6" opacity=".85"/><rect x="974" y="438" width="9" height="13" fill="#fff4e6" opacity=".85"/><rect x="996" y="438" width="9" height="13" fill="#fff4e6" opacity=".85"/><rect x="1091" y="320" width="64" height="160" rx="4" fill="#c06b4a"/><rect x="1103" y="338" width="9" height="13" fill="#fff4e6" opacity=".85"/><rect x="1103" y="368" width="9" height="13" fill="#fff4e6" opacity=".85"/><rect x="1103" y="398" width="9" height="13" fill="#fff4e6" opacity=".85"/><rect x="1125" y="398" width="9" height="13" fill="#fff4e6" opacity=".85"/><rect x="1103" y="428" width="9" height="13" fill="#fff4e6" opacity=".85"/><path d="M1091 320 L1123 286 L1155 320 Z" fill="#c06b4a"/><rect x="0" y="480" width="1200" height="205" fill="#fff4e6"/><rect x="14" y="14" width="1172" height="647" rx="26" fill="none" stroke="#fff" stroke-width="10" stroke-dasharray="2 18" stroke-linecap="round"/></svg>
